<?xml version="1.0" encoding="iso-8859-1"?>
<!-- Generator: Adobe Illustrator 19.0.0, SVG Export Plug-In . SVG Version: 6.00 Build 0)  -->
<svg version="1.1" id="Layer_1" xmlns="http://www.w3.org/2000/svg" xmlns:xlink="http://www.w3.org/1999/xlink" x="0px" y="0px"
	 viewBox="0 0 512 512" style="enable-background:new 0 0 512 512;" xml:space="preserve">
<path style="fill:#465A65;" d="M378.548,163.942c0.843,0,1.702,0.022,2.627,0.068c2.047,0.092,4.044-0.645,5.528-2.062
	c1.483-1.417,2.323-3.382,2.323-5.437V99.305c0-4.146-3.351-7.507-7.485-7.507H7.485C3.351,91.798,0,95.159,0,99.305v266.553
	c0,4.146,3.351,7.507,7.485,7.507h283.421c1.9,0,3.729-0.725,5.116-2.027c15.179-14.253,33.736-24.59,53.66-29.893
	c0.002-0.001,0.005-0.001,0.007-0.002c1.118-0.297,2.242-0.577,3.368-0.842l0.613-0.139c0.893-0.206,1.788-0.401,2.679-0.586
	l0.924-0.186c0.839-0.166,1.682-0.323,2.519-0.471l0.86-0.152c1.096-0.185,2.196-0.358,3.3-0.513
	c0.009-0.001,0.017-0.002,0.026-0.004c0.004-0.001,0.007-0.001,0.011-0.001c1.123-0.157,2.249-0.294,3.378-0.419l0.91-0.092
	c0.816-0.084,1.633-0.161,2.457-0.228c0.374-0.031,0.75-0.059,1.124-0.086c0.792-0.057,1.585-0.105,2.379-0.145l1.04-0.054
	c0.463-0.02,0.928-0.033,1.492-0.05c0.617-0.018,1.21-0.119,1.779-0.277c0.57,0.158,1.163,0.259,1.78,0.277l0.962,0.032
	c0.08,0.003,0.16,0.004,0.24,0.004c1.943,0,3.815-0.797,5.215-2.155c1.459-1.414,2.282-3.407,2.282-5.443
	c0-2.054-0.839-4.019-2.322-5.435c-1.481-1.416-3.473-2.157-5.524-2.063c-0.188,0.009-0.374,0.021-0.562,0.034
	c-0.108,0.007-0.215,0.016-0.323,0.02c-0.606,0.02-1.188,0.12-1.748,0.275c-0.562-0.156-1.146-0.256-1.753-0.276
	c-28.269-0.935-51.266-24.768-51.266-53.129v-52.219C325.529,187.797,349.313,163.942,378.548,163.942z"/>
<path style="fill:#68B9D8;" d="M377.618,321.41c-0.068,0-0.137,0-0.205,0c-72.842,0.997-134.382,60.658-134.382,130.281v39.747
	c0,4.146,3.361,7.507,7.507,7.507h253.955c4.146,0,7.507-3.361,7.507-7.507v-39.747C512,382.068,450.46,322.407,377.618,321.41z"/>
<path style="fill:#3695B2;" d="M377.618,321.41c-0.068,0-0.137,0-0.205,0c-4.631,0.063-9.217,0.366-13.744,0.892
	c66.675,7.734,120.638,64.193,120.638,129.39v39.747c0,4.146-3.361,7.507-7.507,7.507h27.693c4.146,0,7.507-3.361,7.507-7.507
	v-39.747C512,382.068,450.46,322.407,377.618,321.41z"/>
<path style="fill:#F2464F;" d="M417.237,437.033l-17.306-75.125c-0.804-3.489-3.91-5.962-7.491-5.962h-29.849
	c-3.58,0-6.687,2.472-7.491,5.962l-17.306,75.125c-0.623,2.7,0.257,5.525,2.301,7.396l32.231,29.5
	c1.468,1.344,3.329,2.016,5.19,2.016c1.861,0,3.721-0.672,5.19-2.016l32.231-29.5C416.98,442.558,417.859,439.732,417.237,437.033z"
	/>
<g>
	<path style="fill:#D3333C;" d="M414.936,444.428c2.044-1.871,2.923-4.696,2.301-7.396l-16.627-72.175h-23.095h-5.443l16.901,73.367
		l-27.828,25.47l11.181,10.234c1.468,1.344,3.329,2.016,5.19,2.016c1.861,0,3.721-0.672,5.19-2.016L414.936,444.428z"/>
	<path style="fill:#D3333C;" d="M419.332,328.588c-13.195-4.454-27.23-6.98-41.714-7.178c-0.068,0-0.137,0-0.205,0
		c-14.456,0.198-28.462,2.714-41.634,7.151l18.719,36.297h46.037l14.533-28.235C415.56,335.663,417.514,332.192,419.332,328.588z"/>
</g>
<path style="fill:#AF273B;" d="M419.332,328.588c-8.708-2.94-17.788-5.018-27.114-6.163l-20.145,42.433h5.443h23.019l14.533-28.235
	C415.56,335.663,417.514,332.192,419.332,328.588z"/>
<path style="fill:#353535;" d="M252.885,13.054H136.142c-26.723,0-48.465,21.805-48.465,48.608v37.642
	c0,4.146,3.351,7.507,7.485,7.507h26.786c4.134,0,7.485-3.361,7.485-7.507V67.043c0-6.845,5.553-12.416,12.379-12.416h105.401
	c6.825,0,12.379,5.569,12.379,12.416v32.261c0,4.146,3.351,7.507,7.485,7.507h26.787c4.134,0,7.485-3.361,7.485-7.507V61.662
	C301.348,34.86,279.608,13.054,252.885,13.054z"/>
<g>
	<path style="fill:#2E3C42;" d="M319.817,245.209c-7.077,1.732-14.336,2.608-21.576,2.608h-1.91v17.516h5.877
		c7.095,0,13.983-0.875,20.582-2.489v-19.153C321.941,244.396,320.943,244.934,319.817,245.209z"/>
	<path style="fill:#2E3C42;" d="M9.552,197.325C3.457,185.442,0,171.976,0,157.69v20.808c0,44.197,32.927,80.654,75.515,86.107
		v-18.108C46.332,241.536,22.194,222.692,9.552,197.325z"/>
	<path style="fill:#2E3C42;" d="M259.653,247.819H113.072c-1.196,0-2.323-0.288-3.326-0.79v18.305H262.1v-17.935
		C261.333,247.667,260.512,247.819,259.653,247.819z"/>
</g>
<path style="fill:#546F7A;" d="M381.541,91.798H7.485C3.351,91.798,0,95.159,0,99.305v57.459c0,45.693,34.044,84.51,79.19,90.291
	c2.13,0.272,4.279-0.386,5.894-1.813c1.614-1.425,2.538-3.477,2.538-5.634v-17.677h17.965v18.379c0,4.146,3.351,7.507,7.485,7.507
	h146.581c4.134,0,7.485-3.361,7.485-7.507v-18.379h17.965v18.379c0,4.146,3.351,7.507,7.485,7.507h5.654
	c7.24,0,14.499-0.878,21.576-2.608c3.352-0.82,5.711-3.833,5.711-7.294v-20.798c0-29.322,23.784-53.176,53.019-53.176
	c0.843,0,1.702,0.022,2.627,0.067c2.047,0.101,4.044-0.645,5.528-2.061c1.483-1.417,2.323-3.382,2.323-5.437V99.305
	C389.026,95.158,385.675,91.798,381.541,91.798z"/>
<path style="fill:#F7CB4F;" d="M113.072,206.918H80.138c-4.134,0-7.485,3.361-7.485,7.507v39.763
	c0,13.246,10.745,24.023,23.951,24.023c13.207,0,23.953-10.777,23.953-24.023v-39.763
	C120.557,210.28,117.206,206.918,113.072,206.918z"/>
<path style="fill:#F4B008;" d="M113.072,206.918H98.164v47.27c0,9.192-5.178,17.189-12.758,21.227
	c3.344,1.782,7.155,2.797,11.199,2.797c13.207,0,23.953-10.777,23.953-24.023v-39.763
	C120.557,210.28,117.206,206.918,113.072,206.918z"/>
<path style="fill:#F7CB4F;" d="M292.588,206.918h-32.934c-4.134,0-7.485,3.361-7.485,7.507v39.763
	c0,13.246,10.745,24.023,23.952,24.023s23.952-10.777,23.952-24.023v-39.763C300.072,210.28,296.721,206.918,292.588,206.918z"/>
<path style="fill:#F4B008;" d="M292.588,206.918h-15.037v47.27c0,9.167-5.149,17.144-12.694,21.193
	c3.36,1.804,7.195,2.83,11.265,2.83c13.207,0,23.952-10.777,23.952-24.023v-39.763C300.072,210.28,296.721,206.918,292.588,206.918z
	"/>
<path style="fill:#FFC89F;" d="M377.516,147.927c-37.6,0-68.19,30.591-68.19,68.19v52.219c0,37.6,30.59,68.19,68.19,68.19
	s68.19-30.59,68.19-68.19v-52.219C445.706,178.518,415.116,147.927,377.516,147.927z"/>
<path style="fill:#F7B081;" d="M377.516,147.927c-4.657,0-9.206,0.472-13.602,1.366c31.105,6.322,54.588,33.882,54.588,66.825
	v52.219c0,32.944-23.483,60.503-54.588,66.825c4.397,0.894,8.945,1.366,13.602,1.366c37.6,0,68.19-30.59,68.19-68.19v-52.219
	C445.706,178.518,415.116,147.927,377.516,147.927z"/>
<path d="M445.706,242.174v-26.055c0-37.6-30.59-68.19-68.19-68.19s-68.19,30.591-68.19,68.19v26.063h7.539
	c53.012,0,72.324-35.795,72.324-35.795s13.5,35.622,48.978,35.788h7.539V242.174z"/>
<g>
</g>
<g>
</g>
<g>
</g>
<g>
</g>
<g>
</g>
<g>
</g>
<g>
</g>
<g>
</g>
<g>
</g>
<g>
</g>
<g>
</g>
<g>
</g>
<g>
</g>
<g>
</g>
<g>
</g>
</svg>
